<svg width="97" height="36" viewBox="0 0 97 36" fill="none" xmlns="http://www.w3.org/2000/svg">
<path d="M21 25H22.425L32.2 15.225L30.775 13.8L21 23.575V25ZM19 27V22.75L32.2 9.575C32.4 9.39167 32.6208 9.25 32.8625 9.15C33.1042 9.05 33.3583 9 33.625 9C33.8917 9 34.15 9.05 34.4 9.15C34.65 9.25 34.8667 9.4 35.05 9.6L36.425 11C36.625 11.1833 36.7708 11.4 36.8625 11.65C36.9542 11.9 37 12.15 37 12.4C37 12.6667 36.9542 12.9208 36.8625 13.1625C36.7708 13.4042 36.625 13.625 36.425 13.825L23.25 27H19ZM31.475 14.525L30.775 13.8L32.2 15.225L31.475 14.525Z" fill="#0C5890"/>
<path d="M59.9271 21.6396V23H54.643V21.6396H59.9271ZM55.1283 13.0469V23H53.4125V13.0469H55.1283ZM59.2367 17.2031V18.543H54.643V17.2031H59.2367ZM59.893 13.0469V14.4141H54.643V13.0469H59.893ZM65.6395 21.4688V12.5H67.2938V23H65.7967L65.6395 21.4688ZM60.827 19.3838V19.2402C60.827 18.6797 60.893 18.1693 61.0252 17.709C61.1574 17.2441 61.3488 16.8454 61.5994 16.5127C61.8501 16.1755 62.1554 15.918 62.5154 15.7402C62.8755 15.5579 63.2811 15.4668 63.7322 15.4668C64.1788 15.4668 64.5708 15.5534 64.908 15.7266C65.2452 15.8997 65.5324 16.1481 65.7693 16.4717C66.0063 16.7907 66.1954 17.1735 66.3367 17.6201C66.478 18.0622 66.5783 18.5544 66.6375 19.0967V19.5547C66.5783 20.0833 66.478 20.5664 66.3367 21.0039C66.1954 21.4414 66.0063 21.8197 65.7693 22.1387C65.5324 22.4577 65.243 22.7038 64.9012 22.877C64.5639 23.0501 64.1697 23.1367 63.7186 23.1367C63.2719 23.1367 62.8686 23.0433 62.5086 22.8564C62.1531 22.6696 61.8501 22.4076 61.5994 22.0703C61.3488 21.7331 61.1574 21.3366 61.0252 20.8809C60.893 20.4206 60.827 19.9215 60.827 19.3838ZM62.4744 19.2402V19.3838C62.4744 19.721 62.504 20.0355 62.5633 20.3271C62.6271 20.6188 62.7251 20.8763 62.8572 21.0996C62.9894 21.3184 63.1603 21.4915 63.3699 21.6191C63.5841 21.7422 63.8393 21.8037 64.1355 21.8037C64.5092 21.8037 64.8169 21.7217 65.0584 21.5576C65.2999 21.3936 65.4891 21.1725 65.6258 20.8945C65.7671 20.612 65.8628 20.2975 65.9129 19.9512V18.7139C65.8855 18.445 65.8286 18.1943 65.742 17.9619C65.66 17.7295 65.5483 17.5267 65.407 17.3535C65.2658 17.1758 65.0903 17.0391 64.8807 16.9434C64.6756 16.8431 64.4318 16.793 64.1492 16.793C63.8484 16.793 63.5932 16.8568 63.3836 16.9844C63.174 17.112 63.0008 17.2874 62.8641 17.5107C62.7319 17.734 62.6339 17.9938 62.5701 18.29C62.5063 18.5863 62.4744 18.903 62.4744 19.2402ZM70.8801 15.6035V23H69.2258V15.6035H70.8801ZM69.1164 13.6621C69.1164 13.4115 69.1984 13.2041 69.3625 13.04C69.5311 12.8714 69.7635 12.7871 70.0598 12.7871C70.3514 12.7871 70.5816 12.8714 70.7502 13.04C70.9188 13.2041 71.0031 13.4115 71.0031 13.6621C71.0031 13.9082 70.9188 14.1133 70.7502 14.2773C70.5816 14.4414 70.3514 14.5234 70.0598 14.5234C69.7635 14.5234 69.5311 14.4414 69.3625 14.2773C69.1984 14.1133 69.1164 13.9082 69.1164 13.6621ZM76.1754 15.6035V16.8066H72.0055V15.6035H76.1754ZM73.2086 13.792H74.8561V20.9561C74.8561 21.1839 74.888 21.3594 74.9518 21.4824C75.0201 21.6009 75.1135 21.6807 75.232 21.7217C75.3505 21.7627 75.4895 21.7832 75.649 21.7832C75.763 21.7832 75.8723 21.7764 75.9771 21.7627C76.082 21.749 76.1663 21.7354 76.2301 21.7217L76.2369 22.9795C76.1002 23.0205 75.9407 23.057 75.7584 23.0889C75.5807 23.1208 75.3756 23.1367 75.1432 23.1367C74.7649 23.1367 74.4299 23.0706 74.1383 22.9385C73.8466 22.8018 73.6187 22.5807 73.4547 22.2754C73.2906 21.9701 73.2086 21.5645 73.2086 21.0586V13.792Z" fill="#0C5890"/>
</svg>
