<svg width="25" height="24" viewBox="0 0 25 24" fill="none" xmlns="http://www.w3.org/2000/svg">
<g clip-path="url(#clip0_589_2754)">
<path d="M11.353 7H13.4166V9H11.353V7ZM12.3848 17C12.9523 17 13.4166 16.55 13.4166 16V12C13.4166 11.45 12.9523 11 12.3848 11C11.8173 11 11.353 11.45 11.353 12V16C11.353 16.55 11.8173 17 12.3848 17ZM12.3848 2C6.68933 2 2.06689 6.48 2.06689 12C2.06689 17.52 6.68933 22 12.3848 22C18.0803 22 22.7028 17.52 22.7028 12C22.7028 6.48 18.0803 2 12.3848 2ZM12.3848 20C7.83462 20 4.13048 16.41 4.13048 12C4.13048 7.59 7.83462 4 12.3848 4C16.935 4 20.6392 7.59 20.6392 12C20.6392 16.41 16.935 20 12.3848 20Z" fill="#A3AED0"/>
</g>
<defs>
<clipPath id="clip0_589_2754">
<rect width="24.763" height="24" fill="white" transform="translate(0.00341797)"/>
</clipPath>
</defs>
</svg>
