<svg width="26" height="24" viewBox="0 0 26 24" fill="none" xmlns="http://www.w3.org/2000/svg">
<g clip-path="url(#clip0_589_2759)">
<path d="M20.3485 17.29L19.0175 16V11C19.0175 7.93 17.3253 5.36 14.3744 4.68V4C14.3744 3.17 13.6831 2.5 12.8267 2.5C11.9703 2.5 11.279 3.17 11.279 4V4.68C8.31776 5.36 6.63594 7.92 6.63594 11V16L5.30493 17.29C4.6549 17.92 5.10889 19 6.02718 19H19.6159C20.5445 19 20.9985 17.92 20.3485 17.29ZM16.9539 17H8.69953V11C8.69953 8.52 10.2575 6.5 12.8267 6.5C15.3959 6.5 16.9539 8.52 16.9539 11V17ZM12.8267 22C13.9617 22 14.8903 21.1 14.8903 20H10.7631C10.7631 21.1 11.6814 22 12.8267 22Z" fill="#A3AED0"/>
</g>
<defs>
<clipPath id="clip0_589_2759">
<rect width="24.763" height="24" fill="white" transform="translate(0.445312)"/>
</clipPath>
</defs>
</svg>
