<svg width="46" height="46" viewBox="0 0 46 46" fill="none" xmlns="http://www.w3.org/2000/svg">
<path d="M7.6665 36.4167V32.5833H11.4998V19.1667C11.4998 16.5153 12.2984 14.1674 13.8957 12.1229C15.4929 10.0465 17.5693 8.6889 20.1248 8.05001V6.70834C20.1248 5.90973 20.3964 5.2389 20.9394 4.69584C21.5144 4.12084 22.2012 3.83334 22.9998 3.83334C23.7984 3.83334 24.4693 4.12084 25.0123 4.69584C25.5873 5.2389 25.8748 5.90973 25.8748 6.70834V8.05001C28.4304 8.6889 30.5068 10.0465 32.104 12.1229C33.7012 14.1674 34.4998 16.5153 34.4998 19.1667V32.5833H38.3332V36.4167H7.6665ZM22.9998 42.1667C21.9457 42.1667 21.0353 41.7993 20.2686 41.0646C19.5339 40.2979 19.1665 39.3875 19.1665 38.3333H26.8332C26.8332 39.3875 26.4498 40.2979 25.6832 41.0646C24.9484 41.7993 24.054 42.1667 22.9998 42.1667ZM15.3332 32.5833H30.6665V19.1667C30.6665 17.0583 29.9158 15.2535 28.4144 13.7521C26.913 12.2507 25.1082 11.5 22.9998 11.5C20.8915 11.5 19.0866 12.2507 17.5853 13.7521C16.0839 15.2535 15.3332 17.0583 15.3332 19.1667V32.5833Z" fill="#1D1B20"/>
</svg>
