<svg width="46" height="46" viewBox="0 0 46 46" fill="none" xmlns="http://www.w3.org/2000/svg">
<g clip-path="url(#clip0_30_1874)">
<path d="M21.4576 15.4574L24.2861 12.629C24.9051 12.0099 25.64 11.5189 26.4489 11.1838C27.2577 10.8488 28.1246 10.6764 29.0001 10.6764C29.8756 10.6764 30.7425 10.8488 31.5513 11.1838C32.3602 11.5189 33.0951 12.0099 33.7141 12.629C34.3332 13.248 34.8243 13.983 35.1593 14.7918C35.4943 15.6006 35.6668 16.4676 35.6668 17.343C35.6668 18.2185 35.4943 19.0854 35.1593 19.8943C34.8243 20.7031 34.3332 21.438 33.7141 22.0571L30.8857 24.8855M25.2289 30.5424L22.4004 33.3708C21.7814 33.9898 21.0465 34.4809 20.2376 34.8159C19.4288 35.151 18.5619 35.3234 17.6864 35.3234C15.9183 35.3234 14.2226 34.621 12.9723 33.3708C11.7221 32.1205 11.0197 30.4248 11.0197 28.6567C11.0197 26.8886 11.7221 25.1929 12.9723 23.9427L15.8008 21.1143M19.572 26.7711L27.1145 19.2286" stroke="#0C5890" stroke-width="3" stroke-linecap="round" stroke-linejoin="round"/>
</g>
<defs>
<clipPath id="clip0_30_1874">
<rect width="32" height="32" fill="white" transform="translate(0.71582 23) rotate(-45)"/>
</clipPath>
</defs>
</svg>
