<svg width="83" height="83" viewBox="0 0 83 83" fill="none" xmlns="http://www.w3.org/2000/svg">
<path d="M66.4 47.3298C70.7828 50.6045 74.7 58.8494 74.7 63.9296C74.7 65.5122 73.5453 66.7952 72.1209 66.7952H70.55M53.95 33.9072C56.7853 32.2671 58.6928 29.2015 58.6928 25.6905C58.6928 22.1794 56.7853 19.1139 53.95 17.4738M10.8791 66.7952H56.3113C57.7358 66.7952 58.8905 65.5122 58.8905 63.9296C58.8905 53.9813 50.5792 45.9166 33.5952 45.9166C16.6113 45.9166 8.29999 53.9813 8.29999 63.9296C8.29999 65.5122 9.4547 66.7952 10.8791 66.7952ZM43.0809 25.6905C43.0809 30.9293 38.834 35.1762 33.5952 35.1762C28.3564 35.1762 24.1095 30.9293 24.1095 25.6905C24.1095 20.4517 28.3564 16.2048 33.5952 16.2048C38.834 16.2048 43.0809 20.4517 43.0809 25.6905Z" stroke="#0C5890" stroke-width="3" stroke-linecap="round"/>
</svg>
