<svg width="83" height="83" viewBox="0 0 83 83" fill="none" xmlns="http://www.w3.org/2000/svg">
<path d="M57.0625 32.5083L25.9375 14.5596M11.3087 24.07L41.5 41.5346L71.6912 24.07M41.5 76.36V41.5M72.625 55.3333V27.6667C72.6238 26.4537 72.3036 25.2625 71.6966 24.2124C71.0896 23.1622 70.2171 22.2902 69.1667 21.6838L44.9583 7.85042C43.9069 7.24336 42.7141 6.92377 41.5 6.92377C40.2859 6.92377 39.0931 7.24336 38.0417 7.85042L13.8333 21.6838C12.7829 22.2902 11.9104 23.1622 11.3034 24.2124C10.6964 25.2625 10.3762 26.4537 10.375 27.6667V55.3333C10.3762 56.5463 10.6964 57.7375 11.3034 58.7876C11.9104 59.8378 12.7829 60.7098 13.8333 61.3163L38.0417 75.1496C39.0931 75.7567 40.2859 76.0762 41.5 76.0762C42.7141 76.0762 43.9069 75.7567 44.9583 75.1496L69.1667 61.3163C70.2171 60.7098 71.0896 59.8378 71.6966 58.7876C72.3036 57.7375 72.6238 56.5463 72.625 55.3333Z" stroke="#0C5890" stroke-width="3" stroke-linecap="round" stroke-linejoin="round"/>
</svg>
