<svg width="174" height="174" viewBox="0 0 174 174" fill="none" xmlns="http://www.w3.org/2000/svg">
<g filter="url(#filter0_d_2060_5591)">
<circle cx="87" cy="69" r="47" fill="url(#paint0_linear_2060_5591)"/>
<circle cx="87" cy="69" r="44.5" stroke="white" stroke-width="5"/>
</g>
<path d="M78.818 75.5001C78.818 80.0187 82.4811 83.6819 86.9998 83.6819C91.5185 83.6819 95.1816 80.0187 95.1816 75.5001C95.1816 70.9814 91.5185 67.3182 86.9998 67.3182" stroke="white" stroke-width="1.5" stroke-linecap="round"/>
<path d="M87.5454 72.8636V76.1364H90.8181" stroke="white" stroke-width="1.5" stroke-linecap="round" stroke-linejoin="round"/>
<circle cx="87.0002" cy="75.5001" r="8.18182" stroke="white" stroke-width="1.5" stroke-linecap="round" stroke-dasharray="0.5 3.5"/>
<path d="M69 67C69 59.5005 69 55.7508 70.9098 53.1221C71.5266 52.2732 72.2732 51.5266 73.1221 50.9098C75.7508 49 79.5005 49 87 49C94.4995 49 98.2492 49 100.878 50.9098C101.727 51.5266 102.473 52.2732 103.09 53.1221C105 55.7508 105 59.5005 105 67V71C105 78.4995 105 82.2492 103.09 84.8779C102.473 85.7268 101.727 86.4734 100.878 87.0902C98.2492 89 94.4995 89 87 89C79.5005 89 75.7508 89 73.1221 87.0902C72.2732 86.4734 71.5266 85.7268 70.9098 84.8779C69 82.2492 69 78.4995 69 71V67Z" stroke="white" stroke-width="1.5"/>
<path d="M77 63H97" stroke="white" stroke-width="1.5" stroke-linecap="round"/>
<defs>
<filter id="filter0_d_2060_5591" x="0" y="0" width="174" height="174" filterUnits="userSpaceOnUse" color-interpolation-filters="sRGB">
<feFlood flood-opacity="0" result="BackgroundImageFix"/>
<feColorMatrix in="SourceAlpha" type="matrix" values="0 0 0 0 0 0 0 0 0 0 0 0 0 0 0 0 0 0 127 0" result="hardAlpha"/>
<feOffset dy="18"/>
<feGaussianBlur stdDeviation="20"/>
<feColorMatrix type="matrix" values="0 0 0 0 0.439216 0 0 0 0 0.564706 0 0 0 0 0.690196 0 0 0 0.12 0"/>
<feBlend mode="normal" in2="BackgroundImageFix" result="effect1_dropShadow_2060_5591"/>
<feBlend mode="normal" in="SourceGraphic" in2="effect1_dropShadow_2060_5591" result="shape"/>
</filter>
<linearGradient id="paint0_linear_2060_5591" x1="40" y1="22" x2="134" y2="116" gradientUnits="userSpaceOnUse">
<stop stop-color="#3B8AFF"/>
<stop offset="1" stop-color="#0048B2"/>
</linearGradient>
</defs>
</svg>
