<svg width="174" height="174" viewBox="0 0 174 174" fill="none" xmlns="http://www.w3.org/2000/svg">
<g filter="url(#filter0_d_2060_5622)">
<circle cx="87" cy="69" r="47" fill="url(#paint0_linear_2060_5622)"/>
<circle cx="87" cy="69" r="44.5" stroke="white" stroke-width="5"/>
</g>
<circle cx="87.0002" cy="59" r="6.66667" stroke="white" stroke-width="1.5"/>
<path d="M97 64C99.7614 64 102 62.1345 102 59.8333C102 57.5321 99.7614 55.6666 97 55.6666" stroke="white" stroke-width="1.5" stroke-linecap="round"/>
<path d="M77 64C74.2386 64 72 62.1345 72 59.8333C72 57.5321 74.2386 55.6666 77 55.6666" stroke="white" stroke-width="1.5" stroke-linecap="round"/>
<ellipse cx="87" cy="77.3333" rx="10" ry="6.66667" stroke="white" stroke-width="1.5"/>
<path d="M100.333 80.6667C103.257 80.0255 105.333 78.4018 105.333 76.5C105.333 74.5983 103.257 72.9745 100.333 72.3334" stroke="white" stroke-width="1.5" stroke-linecap="round"/>
<path d="M73.6665 80.6667C70.7428 80.0255 68.6665 78.4018 68.6665 76.5C68.6665 74.5983 70.7428 72.9745 73.6665 72.3334" stroke="white" stroke-width="1.5" stroke-linecap="round"/>
<defs>
<filter id="filter0_d_2060_5622" x="0" y="0" width="174" height="174" filterUnits="userSpaceOnUse" color-interpolation-filters="sRGB">
<feFlood flood-opacity="0" result="BackgroundImageFix"/>
<feColorMatrix in="SourceAlpha" type="matrix" values="0 0 0 0 0 0 0 0 0 0 0 0 0 0 0 0 0 0 127 0" result="hardAlpha"/>
<feOffset dy="18"/>
<feGaussianBlur stdDeviation="20"/>
<feColorMatrix type="matrix" values="0 0 0 0 0.439216 0 0 0 0 0.564706 0 0 0 0 0.690196 0 0 0 0.12 0"/>
<feBlend mode="normal" in2="BackgroundImageFix" result="effect1_dropShadow_2060_5622"/>
<feBlend mode="normal" in="SourceGraphic" in2="effect1_dropShadow_2060_5622" result="shape"/>
</filter>
<linearGradient id="paint0_linear_2060_5622" x1="40" y1="22" x2="134" y2="116" gradientUnits="userSpaceOnUse">
<stop stop-color="#3B8AFF"/>
<stop offset="1" stop-color="#0048B2"/>
</linearGradient>
</defs>
</svg>
