<svg width="83" height="83" viewBox="0 0 83 83" fill="none" xmlns="http://www.w3.org/2000/svg">
<path d="M58.7917 72.625V65.7083C58.7917 62.0395 57.3342 58.5209 54.74 55.9267C52.1457 53.3324 48.6272 51.875 44.9583 51.875H17.2917C13.6228 51.875 10.1043 53.3324 7.51003 55.9267C4.91577 58.5209 3.45834 62.0395 3.45834 65.7083V72.625M79.5417 72.625V65.7083C79.5394 62.6433 78.5192 59.6658 76.6414 57.2434C74.7635 54.821 72.1344 53.0908 69.1667 52.3246M55.3333 10.8246C58.3089 11.5865 60.9463 13.317 62.8298 15.7434C64.7132 18.1698 65.7355 21.154 65.7355 24.2256C65.7355 27.2972 64.7132 30.2814 62.8298 32.7078C60.9463 35.1342 58.3089 36.8648 55.3333 37.6267M44.9583 24.2083C44.9583 31.8483 38.7649 38.0417 31.125 38.0417C23.4851 38.0417 17.2917 31.8483 17.2917 24.2083C17.2917 16.5684 23.4851 10.375 31.125 10.375C38.7649 10.375 44.9583 16.5684 44.9583 24.2083Z" stroke="#0C5890" stroke-width="3" stroke-linecap="round" stroke-linejoin="round"/>
</svg>
