<svg width="1512" height="888" viewBox="0 0 1512 888" fill="none" xmlns="http://www.w3.org/2000/svg">
<path d="M-48.7886 1C-129.729 536.172 635.347 1188.49 1513.82 561.262" stroke="#037E86" stroke-width="2.04762"/>
<path d="M-49.5885 32.2888C-128.294 571.843 636.476 1221.31 1513.75 594.08" stroke="#057D8C" stroke-width="2.09524"/>
<path d="M-50.3756 63.5777C-126.846 607.514 637.618 1254.13 1513.69 626.898" stroke="#087B92" stroke-width="2.14286"/>
<path d="M-51.157 94.8666C-125.392 643.186 638.766 1286.95 1513.63 659.715" stroke="#0A7997" stroke-width="2.19048"/>
<path d="M-51.9326 126.155C-123.932 678.857 639.919 1319.76 1513.58 692.533" stroke="#0D789D" stroke-width="2.2381"/>
<path d="M-52.6972 157.444C-122.461 714.529 641.084 1352.58 1513.55 725.351" stroke="#1076A3" stroke-width="2.28571"/>
<path d="M-53.4559 188.733C-120.985 750.2 642.254 1385.4 1513.51 758.168" stroke="#1274A9" stroke-width="2.33333"/>
<path d="M-54.2086 220.022C-119.502 785.871 643.43 1418.22 1513.49 790.986" stroke="#1573AF" stroke-width="2.38095"/>
<path d="M-54.952 251.311C-118.01 821.543 644.616 1451.03 1513.47 823.803" stroke="#1871B5" stroke-width="2.42857"/>
<path d="M-55.6876 282.6C-116.511 857.214 645.81 1483.85 1513.46 856.621" stroke="#1A6FBB" stroke-width="2.47619"/>
<path d="M-56.4149 313.889C-115.003 892.885 647.011 1516.67 1513.46 889.439" stroke="#1D6EC0" stroke-width="2.52381"/>
<path d="M-57.1344 345.177C-113.487 928.557 648.221 1549.49 1513.47 922.256" stroke="#1F6CC6" stroke-width="2.57143"/>
<path d="M-57.8478 376.466C-111.965 964.228 649.436 1582.3 1513.48 955.074" stroke="#226ACC" stroke-width="2.61905"/>
<path d="M-58.5513 407.755C-110.433 999.899 650.662 1615.12 1513.5 987.892" stroke="#2569D2" stroke-width="2.66667"/>
<path d="M-59.2465 439.044C-108.893 1035.57 651.896 1647.94 1513.54 1020.71" stroke="#2767D8" stroke-width="2.71429"/>
<path d="M-59.9319 470.333C-107.343 1071.24 653.14 1680.76 1513.58 1053.53" stroke="#2A65DE" stroke-width="2.7619"/>
<path d="M-60.6108 501.622C-105.787 1106.91 654.39 1713.57 1513.62 1086.34" stroke="#2D64E4" stroke-width="2.80952"/>
<path d="M-61.2832 532.91C-104.224 1142.58 655.646 1746.39 1513.68 1119.16" stroke="#2F62E9" stroke-width="2.85714"/>
<path d="M-61.9432 564.199C-102.649 1178.26 656.915 1779.21 1513.74 1151.98" stroke="#3260EF" stroke-width="2.90476"/>
<path d="M-62.5986 595.488C-101.069 1213.93 658.189 1812.03 1513.82 1184.8" stroke="#345FF5" stroke-width="2.95238"/>
</svg>
