<svg width="40" height="41" viewBox="0 0 40 41" fill="none" xmlns="http://www.w3.org/2000/svg">
<circle cx="15.0003" cy="15.4998" r="3.33333" stroke="#1C274C" stroke-width="1.5"/>
<path d="M21.6663 25.4998C21.6663 27.3408 21.6663 28.8332 14.9997 28.8332C8.33301 28.8332 8.33301 27.3408 8.33301 25.4998C8.33301 23.6589 11.3178 22.1665 14.9997 22.1665C18.6816 22.1665 21.6663 23.6589 21.6663 25.4998Z" stroke="#1C274C" stroke-width="1.5"/>
<path d="M3.33301 20.4998C3.33301 14.2144 3.33301 11.0717 5.28563 9.11913C7.23825 7.1665 10.3809 7.1665 16.6663 7.1665H23.333C29.6184 7.1665 32.7611 7.1665 34.7137 9.11913C36.6663 11.0717 36.6663 14.2144 36.6663 20.4998C36.6663 26.7852 36.6663 29.9279 34.7137 31.8805C32.7611 33.8332 29.6184 33.8332 23.333 33.8332H16.6663C10.3809 33.8332 7.23825 33.8332 5.28563 31.8805C3.33301 29.9279 3.33301 26.7852 3.33301 20.4998Z" stroke="#1C274C" stroke-width="1.5"/>
<path d="M31.667 20.5H25.0003" stroke="#1C274C" stroke-width="1.5" stroke-linecap="round"/>
<path d="M31.667 15.5H23.3337" stroke="#1C274C" stroke-width="1.5" stroke-linecap="round"/>
<path d="M31.667 25.5H26.667" stroke="#1C274C" stroke-width="1.5" stroke-linecap="round"/>
</svg>
