<svg width="27" height="27" viewBox="0 0 27 27" fill="none" xmlns="http://www.w3.org/2000/svg">
<path d="M13.845 12.7535C14.6271 12.0426 15.1248 10.9761 15.1248 9.83848C15.1248 7.63441 13.3474 5.85693 11.1433 5.85693C8.93921 5.85693 7.16173 7.63441 7.16173 9.83848C7.16173 11.0116 7.65943 12.0426 8.44152 12.7535C7.55278 13.0735 6.77069 13.5712 6.09524 14.2822C3.71342 16.8417 3.85562 20.9655 3.85562 21.1432C3.89117 21.5698 4.21112 21.8898 4.63771 21.8542C5.06431 21.8187 5.3487 21.4987 5.3487 21.0721C5.3487 21.0366 5.20651 17.4105 7.23283 15.2776C8.19267 14.2822 9.508 13.7489 11.1788 13.7489C12.8141 13.7489 14.1294 14.2466 15.0893 15.242C17.1156 17.3394 16.9734 21.001 16.9734 21.0366C16.9379 21.4632 17.2578 21.7831 17.6844 21.8187H17.72C18.111 21.8187 18.4309 21.4987 18.4665 21.1077C18.4665 20.9299 18.6442 16.8062 16.1558 14.2466C15.5159 13.5712 14.7338 13.0735 13.845 12.7535ZM8.69036 9.83848C8.69036 8.4876 9.7924 7.35002 11.1788 7.35002C12.5653 7.35002 13.6673 8.45205 13.6673 9.83848C13.6673 11.1894 12.5653 12.327 11.1788 12.327C9.7924 12.327 8.69036 11.1894 8.69036 9.83848ZM22.8746 11.5093C22.5191 11.1183 22.0925 10.8339 21.6304 10.6206C22.0214 10.1229 22.2703 9.51854 22.2703 8.8431C22.2703 7.27892 21.0261 6.03468 19.4619 6.03468C17.8977 6.03468 16.6535 7.27892 16.6535 8.8431C16.6535 9.51854 16.9023 10.1229 17.2934 10.6206C16.9379 10.7983 16.5824 11.0116 16.298 11.296C15.978 11.5804 15.978 12.0426 16.2269 12.3625C16.5113 12.6824 16.9734 12.6824 17.2934 12.4336C17.8621 11.9359 18.5731 11.6871 19.4619 11.6871C20.4573 11.6871 21.2038 11.9715 21.7726 12.5758C22.9813 13.8556 22.9102 16.0597 22.9102 16.0952C22.8746 16.5218 23.1946 16.8417 23.6212 16.8773H23.6567C24.0478 16.8773 24.3677 16.5574 24.4033 16.1663C24.4388 16.0241 24.5099 13.2512 22.8746 11.5093ZM18.1465 8.87865C18.1465 8.16765 18.7509 7.56331 19.4619 7.56331C20.1729 7.56331 20.7772 8.16765 20.7772 8.87865C20.7772 9.58964 20.1729 10.194 19.4619 10.194C18.7509 10.194 18.1465 9.58964 18.1465 8.87865Z" fill="#A3AED0"/>
</svg>
