<svg width="40" height="40" viewBox="0 0 40 40" fill="none" xmlns="http://www.w3.org/2000/svg">
<circle cx="20.0002" cy="9.99992" r="6.66667" stroke="#1C274C" stroke-width="1.5"/>
<path d="M30 15.0001C32.7614 15.0001 35 13.1346 35 10.8334C35 8.53223 32.7614 6.66675 30 6.66675" stroke="#1C274C" stroke-width="1.5" stroke-linecap="round"/>
<path d="M10 15.0001C7.23858 15.0001 5 13.1346 5 10.8334C5 8.53223 7.23858 6.66675 10 6.66675" stroke="#1C274C" stroke-width="1.5" stroke-linecap="round"/>
<ellipse cx="20" cy="28.3334" rx="10" ry="6.66667" stroke="#1C274C" stroke-width="1.5"/>
<path d="M33.3335 31.6666C36.2572 31.0254 38.3335 29.4017 38.3335 27.4999C38.3335 25.5981 36.2572 23.9744 33.3335 23.3333" stroke="#1C274C" stroke-width="1.5" stroke-linecap="round"/>
<path d="M6.6665 31.6666C3.74276 31.0254 1.6665 29.4017 1.6665 27.4999C1.6665 25.5981 3.74276 23.9744 6.6665 23.3333" stroke="#1C274C" stroke-width="1.5" stroke-linecap="round"/>
</svg>
