<svg width="33" height="28" viewBox="0 0 33 28" fill="none" xmlns="http://www.w3.org/2000/svg">
<g clip-path="url(#clip0_589_2731)">
<path d="M9.30736 11.2335H9.5945C10.7 11.2335 11.6045 12.0435 11.6045 13.0335V22.0335C11.6045 23.0235 10.7 23.8335 9.5945 23.8335H9.30736C8.20186 23.8335 7.29736 23.0235 7.29736 22.0335V13.0335C7.29736 12.0435 8.20186 11.2335 9.30736 11.2335ZM17.3473 5.8335C18.4528 5.8335 19.3573 6.6435 19.3573 7.6335V22.0335C19.3573 23.0235 18.4528 23.8335 17.3473 23.8335C16.2418 23.8335 15.3373 23.0235 15.3373 22.0335V7.6335C15.3373 6.6435 16.2418 5.8335 17.3473 5.8335ZM25.3873 16.1192C26.4928 16.1192 27.3973 16.9292 27.3973 17.9192V22.0335C27.3973 23.0235 26.4928 23.8335 25.3873 23.8335C24.2818 23.8335 23.3773 23.0235 23.3773 22.0335V17.9192C23.3773 16.9292 24.2818 16.1192 25.3873 16.1192Z" fill="#A3AED0"/>
</g>
<defs>
<clipPath id="clip0_589_2731">
<rect width="31.2666" height="28" fill="white" transform="translate(0.783691)"/>
</clipPath>
</defs>
</svg>
