<svg width="40" height="40" viewBox="0 0 40 40" fill="none" xmlns="http://www.w3.org/2000/svg">
<path d="M4.16699 10.8332C4.16699 7.69047 4.16699 6.11913 5.1433 5.14281C6.11961 4.1665 7.69096 4.1665 10.8337 4.1665C13.9764 4.1665 15.5477 4.1665 16.524 5.14281C17.5003 6.11913 17.5003 7.69047 17.5003 10.8332V29.1665C17.5003 32.3092 17.5003 33.8805 16.524 34.8569C15.5477 35.8332 13.9764 35.8332 10.8337 35.8332C7.69096 35.8332 6.11961 35.8332 5.1433 34.8569C4.16699 33.8805 4.16699 32.3092 4.16699 29.1665V10.8332Z" stroke="#1C274C" stroke-width="1.5"/>
<path d="M22.5 25.8332C22.5 22.6905 22.5 21.1191 23.4763 20.1428C24.4526 19.1665 26.024 19.1665 29.1667 19.1665C32.3094 19.1665 33.8807 19.1665 34.857 20.1428C35.8333 21.1191 35.8333 22.6905 35.8333 25.8332V29.1665C35.8333 32.3092 35.8333 33.8805 34.857 34.8569C33.8807 35.8332 32.3094 35.8332 29.1667 35.8332C26.024 35.8332 24.4526 35.8332 23.4763 34.8569C22.5 33.8805 22.5 32.3092 22.5 29.1665V25.8332Z" stroke="#1C274C" stroke-width="1.5"/>
<path d="M22.5 9.1665C22.5 7.61337 22.5 6.8368 22.7537 6.22423C23.092 5.40747 23.741 4.75855 24.5577 4.42024C25.1703 4.1665 25.9469 4.1665 27.5 4.1665H30.8333C32.3865 4.1665 33.163 4.1665 33.7756 4.42024C34.5924 4.75855 35.2413 5.40747 35.5796 6.22423C35.8333 6.8368 35.8333 7.61337 35.8333 9.1665C35.8333 10.7196 35.8333 11.4962 35.5796 12.1088C35.2413 12.9255 34.5924 13.5745 33.7756 13.9128C33.163 14.1665 32.3865 14.1665 30.8333 14.1665H27.5C25.9469 14.1665 25.1703 14.1665 24.5577 13.9128C23.741 13.5745 23.092 12.9255 22.7537 12.1088C22.5 11.4962 22.5 10.7196 22.5 9.1665Z" stroke="#1C274C" stroke-width="1.5"/>
</svg>
