<svg width="19" height="19" viewBox="0 0 19 19" fill="none" xmlns="http://www.w3.org/2000/svg">
<path d="M18.9399 6.45607C18.9399 5.97505 18.55 5.5851 18.069 5.5851C17.588 5.5851 17.198 5.97505 17.198 6.45607H18.9399ZM8.77865 17.198C8.29764 17.198 7.90768 17.588 7.90768 18.069C7.90768 18.55 8.29764 18.9399 8.77865 18.9399V17.198ZM17.198 6.45607C17.198 6.93709 17.588 7.32704 18.069 7.32704C18.55 7.32704 18.9399 6.93709 18.9399 6.45607H17.198ZM8.77865 0.939941C8.29764 0.939941 7.90768 1.32989 7.90768 1.81091C7.90768 2.29193 8.29764 2.68188 8.77865 2.68188V0.939941ZM18.069 7.32704C18.55 7.32704 18.9399 6.93709 18.9399 6.45607C18.9399 5.97505 18.55 5.5851 18.069 5.5851V7.32704ZM8.77865 5.5851C8.29764 5.5851 7.90768 5.97505 7.90768 6.45607C7.90768 6.93709 8.29764 7.32704 8.77865 7.32704V5.5851ZM2.68188 9.93994C2.68188 9.45893 2.29193 9.06897 1.81091 9.06897C1.32989 9.06897 0.939941 9.45893 0.939941 9.93994H2.68188ZM8.77865 18.9399C9.25966 18.9399 9.64962 18.55 9.64962 18.069C9.64962 17.588 9.25966 17.198 8.77865 17.198V18.9399ZM0.939941 9.93994C0.939941 10.4209 1.32989 10.8109 1.81091 10.8109C2.29193 10.8109 2.68188 10.4209 2.68188 9.93994H0.939941ZM8.77865 2.68188C9.25966 2.68188 9.64962 2.29193 9.64962 1.81091C9.64962 1.32989 9.25966 0.939941 8.77865 0.939941V2.68188ZM1.81091 9.06897C1.32989 9.06897 0.939941 9.45893 0.939941 9.93994C0.939941 10.4209 1.32989 10.8109 1.81091 10.8109V9.06897ZM8.77865 10.8109C9.25966 10.8109 9.64962 10.4209 9.64962 9.93994C9.64962 9.45893 9.25966 9.06897 8.77865 9.06897V10.8109ZM9.64962 9.93994C9.64962 9.45893 9.25966 9.06897 8.77865 9.06897C8.29764 9.06897 7.90768 9.45893 7.90768 9.93994H9.64962ZM7.90768 18.069C7.90768 18.55 8.29764 18.9399 8.77865 18.9399C9.25966 18.9399 9.64962 18.55 9.64962 18.069H7.90768ZM7.90768 9.93994C7.90768 10.4209 8.29764 10.8109 8.77865 10.8109C9.25966 10.8109 9.64962 10.4209 9.64962 9.93994H7.90768ZM9.64962 6.45607C9.64962 5.97505 9.25966 5.5851 8.77865 5.5851C8.29764 5.5851 7.90768 5.97505 7.90768 6.45607H9.64962ZM9.64962 1.81091C9.64962 1.32989 9.25966 0.939941 8.77865 0.939941C8.29764 0.939941 7.90768 1.32989 7.90768 1.81091H9.64962ZM7.90768 6.45607C7.90768 6.93709 8.29764 7.32704 8.77865 7.32704C9.25966 7.32704 9.64962 6.93709 9.64962 6.45607H7.90768ZM17.198 6.45607V13.4238H18.9399V6.45607H17.198ZM17.198 13.4238C17.198 15.5082 15.5082 17.198 13.4238 17.198V18.9399C16.4703 18.9399 18.9399 16.4703 18.9399 13.4238H17.198ZM13.4238 17.198H8.77865V18.9399H13.4238V17.198ZM18.9399 6.45607C18.9399 3.4096 16.4703 0.939941 13.4238 0.939941V2.68188C15.5082 2.68188 17.198 4.37164 17.198 6.45607H18.9399ZM13.4238 0.939941H8.77865V2.68188H13.4238V0.939941ZM18.069 5.5851H8.77865V7.32704H18.069V5.5851ZM0.939941 9.93994V13.4238H2.68188V9.93994H0.939941ZM0.939941 13.4238C0.939941 16.4703 3.4096 18.9399 6.45607 18.9399V17.198C4.37164 17.198 2.68188 15.5082 2.68188 13.4238H0.939941ZM6.45607 18.9399H8.77865V17.198H6.45607V18.9399ZM2.68188 9.93994V6.45607H0.939941V9.93994H2.68188ZM2.68188 6.45607C2.68188 4.37164 4.37164 2.68188 6.45607 2.68188V0.939941C3.4096 0.939941 0.939941 3.4096 0.939941 6.45607H2.68188ZM6.45607 2.68188H8.77865V0.939941H6.45607V2.68188ZM1.81091 10.8109H8.77865V9.06897H1.81091V10.8109ZM7.90768 9.93994V18.069H9.64962V9.93994H7.90768ZM9.64962 9.93994V6.45607H7.90768V9.93994H9.64962ZM7.90768 1.81091V6.45607H9.64962V1.81091H7.90768Z" fill="#A3AED0"/>
</svg>
