<svg width="26" height="26" viewBox="0 0 26 26" fill="none" xmlns="http://www.w3.org/2000/svg">
<g clip-path="url(#clip0_589_2739)">
<path fill-rule="evenodd" clip-rule="evenodd" d="M11.2928 14.3995C11.6843 16.7058 12.1599 19.1146 12.423 19.6102C12.7962 20.3122 13.6695 20.5844 14.373 20.2112C15.075 19.838 15.3442 18.9617 14.971 18.2597C14.7079 17.7642 12.9812 16.0191 11.2928 14.3995ZM10.6994 11.7398C11.5329 12.5106 15.7219 16.4091 16.323 17.5439C17.0908 18.9907 16.5371 20.7924 15.0888 21.5617C14.6468 21.7957 14.1711 21.9058 13.7031 21.9058C12.6371 21.9058 11.6048 21.3323 11.071 20.3275C10.4699 19.1926 9.59358 13.5384 9.42382 12.4158C9.37641 12.0946 9.53547 11.7765 9.82147 11.6266C10.1105 11.4737 10.4592 11.518 10.6994 11.7398ZM13.0005 3.81885C20.1688 3.81885 26.0005 9.65202 26.0005 16.8188C26.0005 17.8634 25.8797 18.8927 25.6396 19.8777L25.4989 20.4619H18.3978V18.9325H24.2784C24.4069 18.2458 24.4711 17.5361 24.4711 16.8188C24.4711 10.4932 19.3246 5.34824 13.0005 5.34824C6.67485 5.34824 1.52991 10.4932 1.52991 16.8188C1.52991 17.5361 1.59415 18.2458 1.72109 18.9325H8.32203V20.4619H0.500623L0.359925 19.8777C0.121307 18.8927 0.000488281 17.8634 0.000488281 16.8188C0.000488281 9.65202 5.83215 3.81885 13.0005 3.81885ZM20.3475 9.10939L21.4288 10.1907L19.9024 11.717L18.8211 10.6357L20.3475 9.10939ZM5.65229 9.10939L7.17864 10.6357L6.09734 11.717L4.57102 10.1907L5.65231 9.10936L5.65229 9.10939ZM13.7646 6.3826V8.54213H12.2352V6.38258L13.7646 6.3826Z" fill="#A3AED0"/>
</g>
<defs>
<clipPath id="clip0_589_2739">
<rect width="26" height="26" fill="white"/>
</clipPath>
</defs>
</svg>
