<svg width="40" height="40" viewBox="0 0 40 40" fill="none" xmlns="http://www.w3.org/2000/svg">
<path d="M5 18.3333C5 12.0837 5 8.95892 6.59152 6.76837C7.10552 6.06092 7.72767 5.43877 8.43512 4.92478C10.6257 3.33325 13.7504 3.33325 20 3.33325C26.2496 3.33325 29.3743 3.33325 31.5649 4.92478C32.2723 5.43877 32.8945 6.06092 33.4085 6.76837C35 8.95892 35 12.0837 35 18.3333V21.6666C35 27.9161 35 31.0409 33.4085 33.2315C32.8945 33.9389 32.2723 34.5611 31.5649 35.0751C29.3743 36.6666 26.2496 36.6666 20 36.6666C13.7504 36.6666 10.6257 36.6666 8.43512 35.0751C7.72767 34.5611 7.10552 33.9389 6.59152 33.2315C5 31.0409 5 27.9161 5 21.6666V18.3333Z" stroke="#1C274C" stroke-width="1.5"/>
<path d="M19.9998 30.0001L23.3332 25.8336H16.6665L19.9998 21.6667" stroke="#1C274C" stroke-width="1.5" stroke-linecap="round" stroke-linejoin="round"/>
<path d="M11.6665 15H28.3332" stroke="#1C274C" stroke-width="1.5" stroke-linecap="round"/>
</svg>
