<svg width="20" height="12" viewBox="0 0 20 12" fill="none" xmlns="http://www.w3.org/2000/svg">
<path d="M12.5007 1.8335H15.0006C15.5478 1.8335 16.0896 1.94127 16.5952 2.15066C17.1007 2.36006 17.56 2.66697 17.9469 3.05388C18.3338 3.4408 18.6408 3.90013 18.8501 4.40565C19.0595 4.91117 19.1673 5.45299 19.1673 6.00016C19.1673 6.54734 19.0595 7.08915 18.8501 7.59468C18.6408 8.1002 18.3338 8.55953 17.9469 8.94644C17.56 9.33335 17.1007 9.64027 16.5952 9.84966C16.0896 10.0591 15.5478 10.1668 15.0006 10.1668H12.5007M7.50065 10.1668H5.00065C4.45348 10.1668 3.91166 10.0591 3.40614 9.84966C2.90061 9.64027 2.44128 9.33335 2.05437 8.94644C1.27297 8.16504 0.833984 7.10523 0.833984 6.00016C0.833984 4.89509 1.27297 3.83529 2.05437 3.05388C2.83577 2.27248 3.89558 1.8335 5.00065 1.8335H7.50065M6.66732 6.00016H13.334" stroke="#A3AED0" stroke-width="2" stroke-linecap="round" stroke-linejoin="round"/>
</svg>
