<svg width="40" height="41" viewBox="0 0 40 41" fill="none" xmlns="http://www.w3.org/2000/svg">
<path d="M21.8113 36.1463L22.4567 36.5283L21.8113 36.1463ZM22.7147 34.6199L22.0693 34.2379L22.7147 34.6199ZM17.2855 34.6199L16.6401 35.0019L17.2855 34.6199ZM18.189 36.1463L18.8344 35.7643L18.189 36.1463ZM3.96783 27.0225L4.66074 26.7355L4.66074 26.7355L3.96783 27.0225ZM12.9828 32.1526L12.9699 32.9025L12.9828 32.1526ZM8.4778 31.5325L8.19079 32.2254L8.19079 32.2254L8.4778 31.5325ZM36.0325 27.0225L36.7254 27.3095L36.0325 27.0225ZM27.0175 32.1526L27.0045 31.4027L27.0175 32.1526ZM31.5225 31.5325L31.8095 32.2254V32.2254L31.5225 31.5325ZM32.6877 5.06149L32.2958 5.70098L32.6877 5.06149ZM35.4388 7.81267L36.0783 7.4208L36.0783 7.4208L35.4388 7.81267ZM7.31267 5.06149L6.9208 4.42201L7.31267 5.06149ZM4.56149 7.81267L3.92201 7.4208L4.56149 7.81267ZM15.6715 32.5166L16.0486 31.8682L16.0486 31.8682L15.6715 32.5166ZM21.8113 36.1463L22.4567 36.5283L23.3602 35.0019L22.7147 34.6199L22.0693 34.2379L21.1658 35.7643L21.8113 36.1463ZM17.2855 34.6199L16.6401 35.0019L17.5436 36.5283L18.189 36.1463L18.8344 35.7643L17.9309 34.2379L17.2855 34.6199ZM21.8113 36.1463L21.1658 35.7643C20.651 36.6342 19.3493 36.6342 18.8344 35.7643L18.189 36.1463L17.5436 36.5283C18.6393 38.3795 21.361 38.3795 22.4567 36.5283L21.8113 36.1463ZM17.5002 3.8335V4.5835H22.5002V3.8335V3.0835H17.5002V3.8335ZM36.6668 18.0002H35.9168V19.6668H36.6668H37.4168V18.0002H36.6668ZM3.3335 19.6668H4.0835V18.0002H3.3335H2.5835V19.6668H3.3335ZM3.3335 19.6668H2.5835C2.5835 21.598 2.58309 23.0839 2.66453 24.2775C2.74643 25.4778 2.91359 26.4372 3.27492 27.3095L3.96783 27.0225L4.66074 26.7355C4.38774 26.0764 4.23774 25.2994 4.16105 24.1754C4.0839 23.0447 4.0835 21.6185 4.0835 19.6668H3.3335ZM12.9828 32.1526L12.9957 31.4027C10.9034 31.3666 9.72065 31.2355 8.76481 30.8396L8.4778 31.5325L8.19079 32.2254C9.43597 32.7412 10.8777 32.8664 12.9699 32.9025L12.9828 32.1526ZM3.96783 27.0225L3.27492 27.3095C4.19683 29.5352 5.96512 31.3035 8.19079 32.2254L8.4778 31.5325L8.76481 30.8396C6.90668 30.0699 5.43041 28.5936 4.66074 26.7355L3.96783 27.0225ZM36.6668 19.6668H35.9168C35.9168 21.6185 35.9164 23.0447 35.8393 24.1754C35.7626 25.2994 35.6126 26.0764 35.3396 26.7355L36.0325 27.0225L36.7254 27.3095C37.0867 26.4372 37.2539 25.4778 37.3358 24.2775C37.4172 23.0839 37.4168 21.598 37.4168 19.6668H36.6668ZM27.0175 32.1526L27.0304 32.9025C29.1226 32.8664 30.5644 32.7412 31.8095 32.2254L31.5225 31.5325L31.2355 30.8396C30.2797 31.2355 29.0969 31.3666 27.0045 31.4027L27.0175 32.1526ZM36.0325 27.0225L35.3396 26.7355C34.5699 28.5936 33.0936 30.0699 31.2355 30.8396L31.5225 31.5325L31.8095 32.2254C34.0352 31.3035 35.8035 29.5352 36.7254 27.3095L36.0325 27.0225ZM22.5002 3.8335V4.5835C25.2425 4.5835 27.2467 4.58429 28.8173 4.73363C30.3769 4.88191 31.4315 5.17133 32.2958 5.70098L32.6877 5.06149L33.0795 4.42201C31.9399 3.72366 30.6286 3.39908 28.9593 3.24036C27.3012 3.0827 25.2135 3.0835 22.5002 3.0835V3.8335ZM36.6668 18.0002H37.4168C37.4168 15.2868 37.4176 13.1992 37.26 11.541C37.1012 9.87168 36.7767 8.5604 36.0783 7.4208L35.4388 7.81267L34.7994 8.20455C35.329 9.06886 35.6184 10.1235 35.7667 11.683C35.916 13.2537 35.9168 15.2578 35.9168 18.0002H36.6668ZM32.6877 5.06149L32.2958 5.70098C33.3162 6.32626 34.1741 7.18417 34.7994 8.20455L35.4388 7.81267L36.0783 7.4208C35.3293 6.19859 34.3017 5.17099 33.0795 4.42201L32.6877 5.06149ZM17.5002 3.8335V3.0835C14.7868 3.0835 12.6992 3.0827 11.041 3.24036C9.37168 3.39908 8.0604 3.72366 6.9208 4.42201L7.31267 5.06149L7.70455 5.70098C8.56886 5.17133 9.62346 4.88191 11.183 4.73363C12.7537 4.58429 14.7578 4.5835 17.5002 4.5835V3.8335ZM3.3335 18.0002H4.0835C4.0835 15.2578 4.08429 13.2537 4.23363 11.683C4.38191 10.1235 4.67133 9.06886 5.20098 8.20455L4.56149 7.81267L3.92201 7.4208C3.22366 8.5604 2.89908 9.87168 2.74036 11.541C2.5827 13.1992 2.5835 15.2868 2.5835 18.0002H3.3335ZM7.31267 5.06149L6.9208 4.42201C5.69859 5.17099 4.67099 6.19859 3.92201 7.4208L4.56149 7.81267L5.20097 8.20455C5.82626 7.18417 6.68417 6.32626 7.70455 5.70098L7.31267 5.06149ZM17.2855 34.6199L17.9309 34.2379C17.5877 33.6581 17.3044 33.1778 17.0329 32.8052C16.7521 32.42 16.4514 32.1026 16.0486 31.8682L15.6715 32.5166L15.2944 33.1649C15.4544 33.2579 15.6103 33.4001 15.8207 33.6887C16.0402 33.99 16.2825 34.3977 16.6401 35.0019L17.2855 34.6199ZM12.9828 32.1526L12.9699 32.9025C13.6924 32.9149 14.1831 32.9241 14.565 32.9664C14.933 33.0072 15.1369 33.0733 15.2944 33.1649L15.6715 32.5166L16.0486 31.8682C15.6432 31.6325 15.2114 31.5288 14.7301 31.4755C14.2626 31.4238 13.6904 31.4147 12.9957 31.4027L12.9828 32.1526ZM22.7147 34.6199L23.3602 35.0019C23.7178 34.3977 23.96 33.99 24.1796 33.6887C24.39 33.4001 24.5459 33.2579 24.7058 33.1649L24.3288 32.5166L23.9517 31.8682C23.5488 32.1026 23.2481 32.42 22.9674 32.8052C22.6959 33.1778 22.4125 33.6581 22.0693 34.2379L22.7147 34.6199ZM27.0175 32.1526L27.0045 31.4027C26.3098 31.4147 25.7376 31.4238 25.2702 31.4755C24.7888 31.5288 24.357 31.6325 23.9517 31.8682L24.3288 32.5166L24.7058 33.1649C24.8633 33.0733 25.0673 33.0072 25.4353 32.9664C25.8171 32.9241 26.3078 32.9149 27.0304 32.9025L27.0175 32.1526Z" fill="#1C274C"/>
<path d="M13.3335 15.5H26.6668" stroke="#1C274C" stroke-width="1.5" stroke-linecap="round"/>
<path d="M13.3335 21.3335H22.5002" stroke="#1C274C" stroke-width="1.5" stroke-linecap="round"/>
</svg>
