<svg width="26" height="26" viewBox="0 0 26 26" fill="none" xmlns="http://www.w3.org/2000/svg">
<path fill-rule="evenodd" clip-rule="evenodd" d="M12.9998 2.979C7.46549 2.979 2.979 7.46549 2.979 12.9998C2.979 14.6044 3.35549 16.1185 4.0242 17.4611C4.29259 18 4.39594 18.6443 4.2266 19.2772L3.58136 21.6887C3.46285 22.1316 3.86805 22.5369 4.31095 22.4183L6.72249 21.7731C7.35538 21.6038 7.99972 21.7071 8.53857 21.9755C9.88115 22.6442 11.3953 23.0207 12.9998 23.0207C18.5342 23.0207 23.0207 18.5342 23.0207 12.9998C23.0207 7.46549 18.5342 2.979 12.9998 2.979ZM1.354 12.9998C1.354 6.56802 6.56802 1.354 12.9998 1.354C19.4317 1.354 24.6457 6.56802 24.6457 12.9998C24.6457 19.4317 19.4317 24.6457 12.9998 24.6457C11.1383 24.6457 9.37665 24.2083 7.81408 23.4301C7.58091 23.3139 7.34282 23.2892 7.14251 23.3429L4.73097 23.9881C3.08015 24.4298 1.56988 22.9195 2.01159 21.2687L2.65682 18.8572C2.71042 18.6569 2.68578 18.4188 2.56964 18.1856C1.79136 16.623 1.354 14.8613 1.354 12.9998ZM16.8243 10.2586C17.1416 10.5759 17.1416 11.0904 16.8243 11.4077L12.491 15.741C12.1783 16.0538 11.6729 16.059 11.3538 15.7526L9.18715 13.6726C8.86344 13.3619 8.85294 12.8475 9.16371 12.5238C9.47447 12.2001 9.98881 12.1896 10.3125 12.5004L11.9049 14.0291L15.6753 10.2586C15.9927 9.94135 16.507 9.94135 16.8243 10.2586Z" fill="#A3AED0"/>
</svg>
